# xmcd CD database file
#
# Track frame offsets:
#	150
#	19675
#	39040
#	56865
#	77920
#	93250
#	113267
#	127345
#	141730
#	158895
#
# Disc length: 2421 seconds
#
# Revision: 0
# Processed by: cddbd v1.5.1PL2 Copyright (c) Steve Scherf et al.
# Submitted via: CDex 1.51
#
DISCID=8109730a
DTITLE=Various Artist - 特撮＆TVアニメ ヒーロー☆ソングス！ DISC 1
DYEAR=2003
DGENRE=Anime
TTITLE0=遠藤正明 - 爆竜戦隊アバレンジャー
TTITLE1=串田アキラ、コーラス：森の木児童合唱団 - We are the ONE 〜僕らはひとつ〜
TTITLE2=高取ヒデアキ - ハリケンジャー参上！
TTITLE3=影山ヒロノブ - いま 風の中で
TTITLE4=山形ユキオ - ガオレンジャー吼えろ!!
TTITLE5=Salia - ヒーリン’ユー
TTITLE6=石原慎一、コーラス：大木理紗 - 仮面ライダーAGITO
TTITLE7=風雅なおと - BELIEVE YOURSELF
TTITLE8=Project DMM - Spirit
TTITLE9=Project DMM - ウルトラマンコスモス〜君にできるなにか
EXTD=YEAR: 2003
EXTT0=
EXTT1=
EXTT2=
EXTT3=
EXTT4=
EXTT5=
EXTT6=
EXTT7=
EXTT8=
EXTT9=
PLAYORDER=
